<svg width="267" height="247" viewBox="0 0 267 247" fill="none" xmlns="http://www.w3.org/2000/svg">
<g filter="url(#filter0_i_158_6)">
<path d="M163.5 125C164.846 126.444 164.824 126.715 164.5 127V208C156.947 228.128 150.313 237.035 130.5 245C122.773 246.709 117.712 247.101 107 246.5C85.0069 240.451 77.2159 231.342 69 208V166C72.7578 134.754 81.9164 119.86 101.5 100C119.795 86.3552 130.8 82.2012 151 77.5L218.5 77C231.837 76.2799 237.288 71.3893 244 56V47.5C241.303 35.2847 236.669 30.4551 225 24H44C33.5613 27.3893 28.5806 30.9421 23.5 44.5V50C23.3815 55.9259 23.8097 58.9478 26 63.5C31.2994 70.5905 35.7785 73.5044 45.5 77.5H97C97.4016 79.2201 97.481 80.1997 97 82C87.6909 87.1374 83.6697 91.3318 76.5 100.5H38.5C15.9247 90.9062 5.7503 83.5284 0 57C1.70085 26.0183 8.05128 12.1784 38.5 0H229C260.38 13.5754 266.591 25.8084 266 59.5C259.328 84.1589 250.798 93.6465 225 101H159.5C139.891 104.56 129.992 108.292 115.5 120C104.59 130.822 98.9645 138.266 92.5 161.5V206C95.6532 213.675 99.5046 217.613 110 224H121.5C136.144 217.217 138.96 212.295 141.5 203V145.5C145.17 133.493 148.489 127.787 163.5 125Z" fill="#E4712D"/>
</g>
<defs>
<filter id="filter0_i_158_6" x="0" y="0" width="266.037" height="261.365" filterUnits="userSpaceOnUse" color-interpolation-filters="sRGB">
<feFlood flood-opacity="0" result="BackgroundImageFix"/>
<feBlend mode="normal" in="SourceGraphic" in2="BackgroundImageFix" result="shape"/>
<feColorMatrix in="SourceAlpha" type="matrix" values="0 0 0 0 0 0 0 0 0 0 0 0 0 0 0 0 0 0 127 0" result="hardAlpha"/>
<feOffset dy="33"/>
<feGaussianBlur stdDeviation="7.3"/>
<feComposite in2="hardAlpha" operator="arithmetic" k2="-1" k3="1"/>
<feColorMatrix type="matrix" values="0 0 0 0 0 0 0 0 0 0 0 0 0 0 0 0 0 0 0.52 0"/>
<feBlend mode="normal" in2="shape" result="effect1_innerShadow_158_6"/>
</filter>
</defs>
</svg>
